<svg xmlns="http://www.w3.org/2000/svg" xmlns:xlink="http://www.w3.org/1999/xlink" width="500" zoomAndPan="magnify" viewBox="0 0 375 374.999991" height="500" preserveAspectRatio="xMidYMid meet" version="1.0"><defs><g/><clipPath id="cc477eb989"><path d="M 190 119.730469 L 229.671875 119.730469 L 229.671875 160 L 190 160 Z M 190 119.730469 " clip-rule="nonzero"/></clipPath><clipPath id="7a761d8d81"><path d="M 147.171875 119.730469 L 187 119.730469 L 187 160 L 147.171875 160 Z M 147.171875 119.730469 " clip-rule="nonzero"/></clipPath><clipPath id="538cccc083"><path d="M 147.171875 162 L 187 162 L 187 202.230469 L 147.171875 202.230469 Z M 147.171875 162 " clip-rule="nonzero"/></clipPath></defs><g fill="#000000" fill-opacity="1"><g transform="translate(137.850838, 232.239798)"><g><path d="M 9.203125 0.265625 C 7.628906 0.265625 6.207031 -0.0703125 4.9375 -0.75 C 3.664062 -1.4375 2.664062 -2.382812 1.9375 -3.59375 C 1.21875 -4.800781 0.859375 -6.171875 0.859375 -7.703125 C 0.859375 -9.222656 1.21875 -10.585938 1.9375 -11.796875 C 2.664062 -13.015625 3.664062 -13.960938 4.9375 -14.640625 C 6.207031 -15.316406 7.632812 -15.65625 9.21875 -15.65625 C 10.550781 -15.65625 11.753906 -15.421875 12.828125 -14.953125 C 13.910156 -14.484375 14.816406 -13.8125 15.546875 -12.9375 L 13.265625 -10.828125 C 12.222656 -12.023438 10.929688 -12.625 9.390625 -12.625 C 8.441406 -12.625 7.59375 -12.414062 6.84375 -12 C 6.09375 -11.582031 5.507812 -11 5.09375 -10.25 C 4.675781 -9.5 4.46875 -8.648438 4.46875 -7.703125 C 4.46875 -6.742188 4.675781 -5.890625 5.09375 -5.140625 C 5.507812 -4.398438 6.09375 -3.816406 6.84375 -3.390625 C 7.59375 -2.972656 8.441406 -2.765625 9.390625 -2.765625 C 10.929688 -2.765625 12.222656 -3.375 13.265625 -4.59375 L 15.546875 -2.484375 C 14.816406 -1.585938 13.910156 -0.90625 12.828125 -0.4375 C 11.742188 0.03125 10.535156 0.265625 9.203125 0.265625 Z M 9.203125 0.265625 "/></g></g></g><g fill="#000000" fill-opacity="1"><g transform="translate(155.073955, 232.239798)"><g><path d="M 1.828125 -15.40625 L 5.390625 -15.40625 L 5.390625 -2.90625 L 13.109375 -2.90625 L 13.109375 0 L 1.828125 0 Z M 1.828125 -15.40625 "/></g></g></g><g fill="#000000" fill-opacity="1"><g transform="translate(169.459578, 232.239798)"><g><path d="M 11.96875 -3.296875 L 4.8125 -3.296875 L 3.453125 0 L -0.203125 0 L 6.671875 -15.40625 L 10.1875 -15.40625 L 17.078125 0 L 13.328125 0 Z M 10.84375 -6 L 8.40625 -11.90625 L 5.96875 -6 Z M 10.84375 -6 "/></g></g></g><g fill="#000000" fill-opacity="1"><g transform="translate(187.408571, 232.239798)"><g><path d="M 11.640625 0 L 8.671875 -4.296875 L 5.390625 -4.296875 L 5.390625 0 L 1.828125 0 L 1.828125 -15.40625 L 8.484375 -15.40625 C 9.847656 -15.40625 11.03125 -15.175781 12.03125 -14.71875 C 13.039062 -14.257812 13.816406 -13.613281 14.359375 -12.78125 C 14.910156 -11.945312 15.1875 -10.957031 15.1875 -9.8125 C 15.1875 -8.664062 14.910156 -7.675781 14.359375 -6.84375 C 13.804688 -6.019531 13.023438 -5.390625 12.015625 -4.953125 L 15.46875 0 Z M 11.578125 -9.8125 C 11.578125 -10.675781 11.296875 -11.335938 10.734375 -11.796875 C 10.179688 -12.265625 9.367188 -12.5 8.296875 -12.5 L 5.390625 -12.5 L 5.390625 -7.125 L 8.296875 -7.125 C 9.367188 -7.125 10.179688 -7.359375 10.734375 -7.828125 C 11.296875 -8.296875 11.578125 -8.957031 11.578125 -9.8125 Z M 11.578125 -9.8125 "/></g></g></g><g fill="#000000" fill-opacity="1"><g transform="translate(204.675679, 232.239798)"><g><path d="M 8.671875 0.265625 C 6.472656 0.265625 4.757812 -0.34375 3.53125 -1.5625 C 2.300781 -2.78125 1.6875 -4.519531 1.6875 -6.78125 L 1.6875 -15.40625 L 5.265625 -15.40625 L 5.265625 -6.90625 C 5.265625 -4.144531 6.40625 -2.765625 8.6875 -2.765625 C 9.800781 -2.765625 10.648438 -3.097656 11.234375 -3.765625 C 11.828125 -4.441406 12.125 -5.488281 12.125 -6.90625 L 12.125 -15.40625 L 15.640625 -15.40625 L 15.640625 -6.78125 C 15.640625 -4.519531 15.023438 -2.78125 13.796875 -1.5625 C 12.578125 -0.34375 10.867188 0.265625 8.671875 0.265625 Z M 8.671875 0.265625 "/></g></g></g><g fill="#000000" fill-opacity="1"><g transform="translate(223.108584, 232.239798)"><g><path d="M 6.890625 0.265625 C 5.671875 0.265625 4.492188 0.101562 3.359375 -0.21875 C 2.222656 -0.550781 1.304688 -0.984375 0.609375 -1.515625 L 1.828125 -4.203125 C 2.484375 -3.710938 3.265625 -3.320312 4.171875 -3.03125 C 5.085938 -2.738281 6 -2.59375 6.90625 -2.59375 C 7.914062 -2.59375 8.660156 -2.742188 9.140625 -3.046875 C 9.628906 -3.347656 9.875 -3.75 9.875 -4.25 C 9.875 -4.613281 9.726562 -4.914062 9.4375 -5.15625 C 9.15625 -5.394531 8.789062 -5.585938 8.34375 -5.734375 C 7.894531 -5.890625 7.289062 -6.050781 6.53125 -6.21875 C 5.363281 -6.5 4.40625 -6.78125 3.65625 -7.0625 C 2.90625 -7.34375 2.257812 -7.789062 1.71875 -8.40625 C 1.1875 -9.019531 0.921875 -9.84375 0.921875 -10.875 C 0.921875 -11.757812 1.160156 -12.566406 1.640625 -13.296875 C 2.128906 -14.023438 2.859375 -14.597656 3.828125 -15.015625 C 4.804688 -15.441406 6 -15.65625 7.40625 -15.65625 C 8.394531 -15.65625 9.359375 -15.535156 10.296875 -15.296875 C 11.234375 -15.066406 12.054688 -14.734375 12.765625 -14.296875 L 11.65625 -11.59375 C 10.238281 -12.394531 8.816406 -12.796875 7.390625 -12.796875 C 6.390625 -12.796875 5.648438 -12.632812 5.171875 -12.3125 C 4.703125 -12 4.46875 -11.578125 4.46875 -11.046875 C 4.46875 -10.515625 4.738281 -10.117188 5.28125 -9.859375 C 5.832031 -9.609375 6.675781 -9.359375 7.8125 -9.109375 C 8.976562 -8.828125 9.9375 -8.546875 10.6875 -8.265625 C 11.4375 -7.992188 12.078125 -7.554688 12.609375 -6.953125 C 13.148438 -6.347656 13.421875 -5.535156 13.421875 -4.515625 C 13.421875 -3.628906 13.175781 -2.820312 12.6875 -2.09375 C 12.195312 -1.375 11.457031 -0.800781 10.46875 -0.375 C 9.488281 0.0507812 8.296875 0.265625 6.890625 0.265625 Z M 6.890625 0.265625 "/></g></g></g><path fill="#000000" d="M 201.675781 178.703125 L 219.238281 178.703125 L 219.238281 182.507812 L 201.675781 182.507812 Z M 201.675781 186.320312 L 219.238281 186.320312 L 219.238281 190.039062 L 201.675781 190.039062 Z M 201.675781 186.320312 " fill-opacity="1" fill-rule="nonzero"/><g clip-path="url(#cc477eb989)"><path fill="#000000" d="M 224.535156 119.683594 L 190.191406 119.683594 L 190.191406 159.050781 L 229.671875 159.050781 L 229.671875 124.796875 C 229.671875 124.460938 229.640625 124.125 229.578125 123.792969 C 229.511719 123.464844 229.414062 123.140625 229.285156 122.832031 C 229.160156 122.519531 229 122.222656 228.8125 121.941406 C 228.625 121.664062 228.410156 121.402344 228.171875 121.164062 C 227.933594 120.925781 227.671875 120.714844 227.390625 120.527344 C 227.109375 120.34375 226.8125 120.1875 226.5 120.058594 C 226.1875 119.933594 225.867188 119.835938 225.535156 119.773438 C 225.203125 119.710938 224.871094 119.679688 224.535156 119.683594 Z M 221.320312 142.003906 L 199.59375 142.003906 L 199.59375 138.285156 L 221.320312 138.285156 Z M 221.320312 142.003906 " fill-opacity="1" fill-rule="nonzero"/></g><g clip-path="url(#7a761d8d81)"><path fill="#000000" d="M 147.039062 124.796875 L 147.039062 159.042969 L 186.429688 159.042969 L 186.429688 119.675781 L 152.15625 119.675781 C 151.820312 119.671875 151.484375 119.703125 151.15625 119.769531 C 150.824219 119.832031 150.503906 119.929688 150.191406 120.058594 C 149.878906 120.1875 149.585938 120.34375 149.304688 120.53125 C 149.023438 120.714844 148.765625 120.929688 148.527344 121.167969 C 148.289062 121.40625 148.074219 121.664062 147.890625 121.945312 C 147.703125 122.226562 147.546875 122.519531 147.417969 122.832031 C 147.289062 123.144531 147.195312 123.464844 147.128906 123.796875 C 147.066406 124.125 147.035156 124.460938 147.039062 124.796875 Z M 155.371094 138.285156 L 164.28125 138.285156 L 164.28125 129.28125 L 168.109375 129.28125 L 168.109375 138.285156 L 177.011719 138.285156 L 177.011719 142.003906 L 168.109375 142.003906 L 168.109375 151.007812 L 164.300781 151.007812 L 164.300781 142.003906 L 155.371094 142.003906 Z M 155.371094 138.285156 " fill-opacity="1" fill-rule="nonzero"/></g><g clip-path="url(#538cccc083)"><path fill="#000000" d="M 147.039062 197.175781 C 147.035156 197.511719 147.066406 197.84375 147.132812 198.175781 C 147.195312 198.507812 147.292969 198.828125 147.417969 199.140625 C 147.546875 199.449219 147.703125 199.746094 147.890625 200.027344 C 148.078125 200.308594 148.289062 200.566406 148.527344 200.804688 C 148.765625 201.042969 149.023438 201.253906 149.304688 201.441406 C 149.585938 201.628906 149.878906 201.785156 150.191406 201.914062 C 150.503906 202.042969 150.824219 202.136719 151.15625 202.203125 C 151.484375 202.265625 151.820312 202.296875 152.15625 202.296875 L 186.429688 202.296875 L 186.429688 162.863281 L 147.039062 162.863281 Z M 157.222656 178.042969 L 159.902344 175.359375 L 166.183594 181.734375 L 172.558594 175.359375 L 175.238281 178.042969 L 168.863281 184.414062 L 175.242188 190.695312 L 172.5625 193.371094 L 166.1875 187.089844 L 159.90625 193.371094 L 157.226562 190.695312 L 163.507812 184.414062 Z M 157.222656 178.042969 " fill-opacity="1" fill-rule="nonzero"/></g></svg>