<svg xmlns="http://www.w3.org/2000/svg" xmlns:xlink="http://www.w3.org/1999/xlink" width="500" zoomAndPan="magnify" viewBox="0 0 375 374.999991" height="500" preserveAspectRatio="xMidYMid meet" version="1.0"><defs><clipPath id="bb037fc9e3"><path d="M 190 119.730469 L 229.671875 119.730469 L 229.671875 160 L 190 160 Z M 190 119.730469 " clip-rule="nonzero"/></clipPath><clipPath id="091a9847f9"><path d="M 147.171875 119.730469 L 187 119.730469 L 187 160 L 147.171875 160 Z M 147.171875 119.730469 " clip-rule="nonzero"/></clipPath><clipPath id="ecfbb9c722"><path d="M 147.171875 162 L 187 162 L 187 202.230469 L 147.171875 202.230469 Z M 147.171875 162 " clip-rule="nonzero"/></clipPath></defs><path fill="#000000" d="M 201.675781 178.703125 L 219.238281 178.703125 L 219.238281 182.507812 L 201.675781 182.507812 Z M 201.675781 186.320312 L 219.238281 186.320312 L 219.238281 190.039062 L 201.675781 190.039062 Z M 201.675781 186.320312 " fill-opacity="1" fill-rule="nonzero"/><g clip-path="url(#bb037fc9e3)"><path fill="#000000" d="M 224.535156 119.683594 L 190.191406 119.683594 L 190.191406 159.050781 L 229.671875 159.050781 L 229.671875 124.796875 C 229.671875 124.460938 229.640625 124.125 229.578125 123.792969 C 229.511719 123.464844 229.414062 123.140625 229.285156 122.832031 C 229.160156 122.519531 229 122.222656 228.8125 121.941406 C 228.625 121.664062 228.410156 121.402344 228.171875 121.164062 C 227.933594 120.925781 227.671875 120.714844 227.390625 120.527344 C 227.109375 120.34375 226.8125 120.1875 226.5 120.058594 C 226.1875 119.933594 225.867188 119.835938 225.535156 119.773438 C 225.203125 119.710938 224.871094 119.679688 224.535156 119.683594 Z M 221.320312 142.003906 L 199.59375 142.003906 L 199.59375 138.285156 L 221.320312 138.285156 Z M 221.320312 142.003906 " fill-opacity="1" fill-rule="nonzero"/></g><g clip-path="url(#091a9847f9)"><path fill="#000000" d="M 147.039062 124.796875 L 147.039062 159.042969 L 186.429688 159.042969 L 186.429688 119.675781 L 152.15625 119.675781 C 151.820312 119.671875 151.484375 119.703125 151.15625 119.769531 C 150.824219 119.832031 150.503906 119.929688 150.191406 120.058594 C 149.878906 120.1875 149.585938 120.34375 149.304688 120.53125 C 149.023438 120.714844 148.765625 120.929688 148.527344 121.167969 C 148.289062 121.40625 148.074219 121.664062 147.890625 121.945312 C 147.703125 122.226562 147.546875 122.519531 147.417969 122.832031 C 147.289062 123.144531 147.195312 123.464844 147.128906 123.796875 C 147.066406 124.125 147.035156 124.460938 147.039062 124.796875 Z M 155.371094 138.285156 L 164.28125 138.285156 L 164.28125 129.28125 L 168.109375 129.28125 L 168.109375 138.285156 L 177.011719 138.285156 L 177.011719 142.003906 L 168.109375 142.003906 L 168.109375 151.007812 L 164.300781 151.007812 L 164.300781 142.003906 L 155.371094 142.003906 Z M 155.371094 138.285156 " fill-opacity="1" fill-rule="nonzero"/></g><g clip-path="url(#ecfbb9c722)"><path fill="#000000" d="M 147.039062 197.175781 C 147.035156 197.511719 147.066406 197.84375 147.132812 198.175781 C 147.195312 198.507812 147.292969 198.828125 147.417969 199.140625 C 147.546875 199.449219 147.703125 199.746094 147.890625 200.027344 C 148.078125 200.308594 148.289062 200.566406 148.527344 200.804688 C 148.765625 201.042969 149.023438 201.253906 149.304688 201.441406 C 149.585938 201.628906 149.878906 201.785156 150.191406 201.914062 C 150.503906 202.042969 150.824219 202.136719 151.15625 202.203125 C 151.484375 202.265625 151.820312 202.296875 152.15625 202.296875 L 186.429688 202.296875 L 186.429688 162.863281 L 147.039062 162.863281 Z M 157.222656 178.042969 L 159.902344 175.359375 L 166.183594 181.734375 L 172.558594 175.359375 L 175.238281 178.042969 L 168.863281 184.414062 L 175.242188 190.695312 L 172.5625 193.371094 L 166.1875 187.089844 L 159.90625 193.371094 L 157.226562 190.695312 L 163.507812 184.414062 Z M 157.222656 178.042969 " fill-opacity="1" fill-rule="nonzero"/></g></svg>